<svg xmlns="http://www.w3.org/2000/svg" viewBox="0 0 16 16" width="16" height="16">

    <g fill="#389FD6" fill-rule="evenodd">


        <polygon fill="#40B6E0" fill-opacity=".9" points="1 16 16 16 16 9 1 9"/>
        <path fill="#231F20" fill-opacity=".9" d="M1.9,2.5 C2.564,2.5 3,2.38439941 3,1.75 C3,1.11560059 2.557,1 1.9,1 L1,1 L1,2.5 L1.9,2.5 Z M0,0 L1.971,0 C3.142,0 4,0.642 4,1.65 C4,3.28582764 2.971,3.5 1.872,3.5 L1,3.5 L1,5 L0,5 L0,0 Z" transform="translate(8 10)"/>
        <path fill="#231F20" fill-opacity=".9" d="M3.15,3 L2.49612121,1.4 L1.85,3 L3.15,3 Z M2.109,0 L2.89,0 L5,5 L3.9,5 L3.4,4 L1.6,4 L1.1,5 L0,5 L2.109,0 Z" transform="translate(2 10)"/>
        <polygon fill="#231F20" fill-opacity=".9" points="0 5 1 5 1 0 0 0" transform="translate(13 10)"/>
        <polygon fill="#9AA7B0" fill-opacity=".9" points="7 1 3 5 7 5"/>
        <polygon fill="#9AA7B0" fill-opacity=".9" points="8 1 8 6 3 6 3 8 13 8 13 1"/>

        <g transform="scale(0.5)">
            <path d="M10.9000003,4.89999992 L14.0999999,4.89999992 L9.9000001,9.09999973 L5.70000029,4.89999992 L8.90000027,4.89999992 L8.90000027,0.899999917 L10.9000003,0.899999917 L10.9000003,4.89999992 Z" transform="rotate(90 9.9 5)"/>
            <path d="M5.0999999,10.9000001 L8.29999971,10.9000001 L4.0999999,15.0999999 L-0.0999999046,10.9000001 L3.0999999,10.9000001 L3.0999999,6.9000001 L5.0999999,6.9000001 L5.0999999,10.9000001 Z" transform="matrix(0 1 1 0 -6.9 6.9)"/>
        </g>
    </g>

</svg>
